<svg xmlns="http://www.w3.org/2000/svg" xmlns:xlink="http://www.w3.org/1999/xlink" width="24.327" height="24.327" viewBox="0 0 24.327 24.327">
  <defs>
    <clipPath id="clip-path">
      <rect id="Rectangle_127" data-name="Rectangle 127" width="24.327" height="24.327" transform="translate(0 0)" fill="#fff"/>
    </clipPath>
  </defs>
  <g id="Group_112" data-name="Group 112" clip-path="url(#clip-path)">
    <path id="Path_36" data-name="Path 36" d="M12.163,0A12.163,12.163,0,1,0,24.327,12.163,12.169,12.169,0,0,0,12.163,0m0,2.009A10.155,10.155,0,1,1,2.009,12.163,10.16,10.16,0,0,1,12.163,2.009" transform="translate(0 0)" fill="#fff" fill-rule="evenodd"/>
    <path id="Path_37" data-name="Path 37" d="M8.015,6.873A1.116,1.116,0,1,1,6.9,7.989,1.116,1.116,0,0,1,8.015,6.873" transform="translate(0.8 0.797)" fill="#fff" fill-rule="evenodd"/>
    <path id="Path_38" data-name="Path 38" d="M14.3,6.873a1.116,1.116,0,1,1-1.116,1.116A1.116,1.116,0,0,1,14.3,6.873" transform="translate(1.529 0.797)" fill="#fff" fill-rule="evenodd"/>
    <path id="Path_39" data-name="Path 39" d="M15.729,11.6a4.576,4.576,0,0,1-8.387,0,1,1,0,0,0-1.84.806,6.585,6.585,0,0,0,12.068,0,1,1,0,0,0-1.84-.806" transform="translate(0.628 1.275)" fill="#fff" fill-rule="evenodd"/>
  </g>
</svg>
