<svg id="Group_139" data-name="Group 139" xmlns="http://www.w3.org/2000/svg" xmlns:xlink="http://www.w3.org/1999/xlink" width="209.988" height="371.9" viewBox="0 0 209.988 371.9">
  <defs>
    <clipPath id="clip-path">
      <rect id="Rectangle_141" data-name="Rectangle 141" width="209.988" height="371.9" fill="none"/>
    </clipPath>
    <clipPath id="clip-path-3">
      <rect id="Rectangle_139" data-name="Rectangle 139" width="170.808" height="16.953" fill="none"/>
    </clipPath>
    <clipPath id="clip-path-4">
      <rect id="Rectangle_138" data-name="Rectangle 138" width="170.807" height="16.953" fill="none"/>
    </clipPath>
  </defs>
  <g id="Group_138" data-name="Group 138" clip-path="url(#clip-path)">
    <g id="Group_137" data-name="Group 137">
      <g id="Group_136" data-name="Group 136" clip-path="url(#clip-path)">
        <path id="Path_57" data-name="Path 57" d="M198.607,218.946c-.529.755-.969,1.383-1.343,1.919a42.194,42.194,0,0,1-12.65,13.119s-10.441,8.34-17.513,7.67c-.044.007-.086.02-.132.026h0c-.075-.016-.15-.038-.225-.057a5.856,5.856,0,0,1-3.991-2.265c-.109-.11-.217-.217-.322-.334-2.532-2.842-2.071-6.488-.234-10.263a40.188,40.188,0,0,1,4.694-6.807c.731-.807,1.408-1.559,2-2.239.391-.454.746-.878,1.049-1.265,5.05-6.441,3.925-3.548,7.959-10.659,3.826-6.744,3.776-12.2-1.84-17.966-.086-.086-.179-.178-.266-.268-8.636-8.832-18.2-17.245-27.453-25.419-1.208-1.067-3.64-.448-3.485,1.444,1.862,22.73,2.887,45.522,4.826,68.245l-.005.027.015.1c.086.559.549,3.547,1.158,7.446.8,5.115,1.848,11.788,2.624,16.587.492,3.04.875,5.331,1.015,5.991.013.061.035.105.051.16l-.023.008a519.725,519.725,0,0,1,9.322,57.489c.892,8.936,2.146,18.278,1.782,27.268-.129,3.209-.391,6.59-2.259,9.354-3.233,4.782-9.381,4.687-12.638.032-2.66-3.8-4-8.624-5.649-12.932-6.891-18.038-13.687-36.228-19.844-54.53-2.155-6.405-3.542-13.152-6.59-19.229-2.277-4.542-6.83-11.71-12.623-12-10.8-.547-15.108,19.963-17.1,27.363-4.972,18.492-8.418,36.94-15.594,54.813-2.461,6.132-9.414,27.714-19.377,17.774-7.174-7.156-5.535-20.106-4.784-29.3q1.77-21.672,4.062-43.293c2.958-27.549,6.4-55.047,10.063-82.511q1.529-11.476,3.129-22.942c.522-3.7,1.634-8.041,1.21-11.914-1.075-6.282-6.689-2.479-7.053-2.225-8.581,6.721-16.523,13.145-24.745,20.575-.093.084-.192.17-.282.251-5.962,5.4-6.349,10.85-2.948,17.818,3.587,7.346,2.644,4.389,7.285,11.13.279.4.607.851.97,1.327.543.715,1.173,1.507,1.852,2.358a40.186,40.186,0,0,1,4.265,7.084c1.6,3.881,1.835,7.549-.869,10.229-.111.11-.226.211-.341.313a5.861,5.861,0,0,1-4.124,2.015c-.076.014-.152.032-.229.043h0c-.045-.009-.086-.024-.129-.033-7.1.231-17.005-8.738-17.005-8.738a42.2,42.2,0,0,1-11.815-13.876c-.341-.558-.74-1.212-1.222-2-5.43-8.863-8.8-19.573-5.893-29.823.179-.623.374-1.244.6-1.863,3.558-9.811,13.075-16.3,20.787-22.732,12.245-10.214,24.61-20.126,37.6-29.317a53.368,53.368,0,0,1,9-4.828c3.576-1.376,7.185-2.657,10.839-3.785a2.068,2.068,0,0,0,.488-3.732C66.062,107.529,54.037,87,58.394,64.284,62.8,41.306,86.75,26.147,108.628,23.564c11.94-1.41,27.342-.556,37.869,5.728,10.861,6.483,18.243,17.117,22.384,28.8,8.963,25.277-.632,52.721-25.034,65-1.518.764-1.113,2.675,0,3.526,15.012,11.5,28.928,24.082,42.661,37.059,7.3,6.9,16.4,13.962,19.342,23.974.186.632.342,1.264.483,1.9,2.271,10.41-1.758,20.891-7.727,29.4" transform="translate(-0.615 -3.312)" fill="#fff"/>
        <path id="Path_58" data-name="Path 58" d="M136.347,215.282c.149-4.833-1.762-10.461-2.633-15.191q-1.728-9.376-3.548-18.732c-.554-2.851-2.283-7.018-1.968-9.943.257-2.444,3.807-4.657,4.028-6.44.118-.947-1.433-4.006-1.856-4.674-1.214-1.916.3-.911-2.045-1.514-1.7-.436-3.687.352-5.418.074-.042-.007-.916-.045-1.488-.019l-.031.028c-1.516,1.328-3.227,4.536-3.984,6.718,3.081,4.161,5.423,4.254,4.064,9.682-2.04,8.149-4.583,16.169-6.627,24.319-1.007,4.023-1.968,8.062-2.7,12.144-.874,4.919-.514,4.964,3.218,7.824,2.873,2.2,6.162,4.429,8.677,7.031a4.9,4.9,0,0,1,.352.4.39.39,0,0,1,.086-.094,22.743,22.743,0,0,0,2.708-2.366c2.562-2.289,5.028-4.681,7.571-6.99a17.744,17.744,0,0,0,1.648-1.446,1.911,1.911,0,0,1-.053-.811" transform="translate(-16.107 -22.869)" fill="#4f529e"/>
        <path id="Path_59" data-name="Path 59" d="M138.119,210.145c-1.807-10.815-3.908-21.586-6.012-32.345a33.611,33.611,0,0,1-1.07-5.392c-.046-2.482-.247-1.585,1.722-4.2,2.776-3.691,2.029-7.66-.971-11.491-2.045-2.61-8.654-2.447-11.619-1.464-3,.995-5.532,6.272-6.447,9.322a1.251,1.251,0,0,0,.058,1.442,1.181,1.181,0,0,0,.086.121c1.9,2.66,4.5,3.937,4.355,6.52-.223,4.008-2.35,8.6-3.423,12.441-2.91,10.434-6.015,21.017-7.149,31.825a1.509,1.509,0,0,0,.758,1.321,78.665,78.665,0,0,1,8.577,6.4c1.536,1.257,3.757,3.981,5.689,4.6,2.616.832,4.115-1.381,6.077-3.136,2.627-2.347,8.559-6.068,9.943-9.387.755-1.807-.281-4.785-.579-6.576m-3.957,6.807c-2.543,2.311-5.008,4.7-7.57,6.989a22.752,22.752,0,0,1-2.708,2.367.333.333,0,0,0-.086.094,4.906,4.906,0,0,0-.353-.4c-2.515-2.6-5.8-4.83-8.677-7.032-3.732-2.859-4.092-2.9-3.218-7.823.725-4.082,1.689-8.124,2.7-12.144,2.045-8.151,4.587-16.171,6.627-24.319,1.359-5.428-.983-5.521-4.064-9.682.757-2.179,2.468-5.392,3.985-6.717l.03-.028c.573-.026,1.447.012,1.488.019,1.731.277,3.722-.514,5.418-.074,2.346.6.83-.4,2.045,1.514.423.668,1.974,3.726,1.856,4.674-.221,1.784-3.766,4-4.028,6.44-.311,2.924,1.417,7.092,1.968,9.943q1.817,9.358,3.548,18.732c.871,4.729,2.782,10.356,2.633,15.191a1.9,1.9,0,0,0,.053.811,17.626,17.626,0,0,1-1.648,1.446" transform="translate(-15.517 -22.283)" fill="#040504"/>
        <g id="Group_135" data-name="Group 135" transform="translate(22.388 354.947)" opacity="0.8">
          <g id="Group_134" data-name="Group 134">
            <g id="Group_133" data-name="Group 133" clip-path="url(#clip-path-3)">
              <g id="Group_132" data-name="Group 132" transform="translate(0)">
                <g id="Group_131" data-name="Group 131" clip-path="url(#clip-path-4)">
                  <path id="Path_60" data-name="Path 60" d="M169.848,417.009c-3.043,4.438-8.508,7.254-13.813,4.973a14.447,14.447,0,0,1-6.551-6.375c-11.427-.563-24.3-.88-37.923-.88-13.938,0-27.094.331-38.716.919-2.433,3.674-5.962,7.458-10.265,7.555-3.851.086-7.585-2.9-10-6.128-16.279,1.541-26.421,3.719-26.421,6.13,0,4.682,38.237,8.473,85.4,8.473s85.4-3.795,85.4-8.473c0-2.445-10.434-4.647-27.117-6.195" transform="translate(-26.158 -414.727)" fill="#d3d5d5"/>
                </g>
              </g>
            </g>
          </g>
        </g>
        <path id="Path_61" data-name="Path 61" d="M105.366,58.76a118.562,118.562,0,0,0-.912,15.69c.02,2.627,4.1,2.633,4.082,0a118.708,118.708,0,0,1,.912-15.69c.324-2.6-3.761-2.578-4.082,0" transform="translate(-15.056 -8.19)" fill="#040504"/>
        <path id="Path_62" data-name="Path 62" d="M150.46,61.363a101.434,101.434,0,0,0-1.139,14.609c0,2.627,4.087,2.632,4.082,0A94.083,94.083,0,0,1,154.4,62.45c.368-2.568-3.566-3.68-3.937-1.086" transform="translate(-21.524 -8.632)" fill="#040504"/>
        <path id="Path_63" data-name="Path 63" d="M90.173,34.861a4.555,4.555,0,0,1,.287-1.951,19.036,19.036,0,0,1,2.555-5.762C98,19.31,106.965,14.4,115.361,11.082a135.456,135.456,0,0,1,28.4-7.3c2.463-.4,1.417-4.141-1.034-3.748C127.684,2.444,111.54,6.247,99.055,15.482,93.729,19.419,88.79,24.651,86.9,31.162a12.874,12.874,0,0,0-.618,3.7c.045,2.5,3.932,2.506,3.887,0" transform="translate(-12.437 0)" fill="#040504"/>
        <path id="Path_64" data-name="Path 64" d="M109.818,37.25c.062.325-.024.16-.018-.44a19.129,19.129,0,0,1,.122-2.064,16.41,16.41,0,0,1,3.351-7.328c8.3-10.693,24.338-14.036,36.841-16.139,2.461-.413,1.417-4.159-1.034-3.748-13.547,2.277-30.361,6.189-39.137,17.887-2.633,3.509-4.723,8.373-3.873,12.864.465,2.455,4.212,1.416,3.748-1.033" transform="translate(-15.261 -1.081)" fill="#040504"/>
        <path id="Path_65" data-name="Path 65" d="M129.489,39.984c-.781-2.347-.086-5.869,1.47-8.473,5.617-9.429,19.342-12.239,29.185-13.971,2.459-.428,1.416-4.178-1.034-3.748C148.146,15.72,133.8,19.145,127.6,29.549c-1.927,3.237-3.1,7.751-1.861,11.468.787,2.362,4.541,1.35,3.748-1.033" transform="translate(-18.051 -1.983)" fill="#040504"/>
        <path id="Path_66" data-name="Path 66" d="M147.6,41.764c.293.644.009.068-.081-.3-.125-.514-.3-1.147-.354-1.565a10.131,10.131,0,0,1,.784-5.216c3.687-8.248,15.517-10.68,23.34-12.118,2.457-.451,1.416-4.2-1.033-3.748-9.141,1.68-21.568,4.808-25.815,14.243a13.19,13.19,0,0,0-.2,10.662c1.035,2.273,4.385.3,3.357-1.962" transform="translate(-20.643 -2.707)" fill="#040504"/>
        <path id="Path_67" data-name="Path 67" d="M162.693,43.995a9.293,9.293,0,0,1-.572-6.308c2.237-7.275,12.466-9.414,18.82-10.64,2.454-.472,1.415-4.219-1.034-3.748-7.788,1.5-18.594,4.426-21.42,13a12.432,12.432,0,0,0,.849,9.657c1.223,2.182,4.581.224,3.357-1.962" transform="translate(-22.758 -3.353)" fill="#040504"/>
        <path id="Path_68" data-name="Path 68" d="M176.235,46.524a8.241,8.241,0,0,1-1.255-5.572c1-6.5,10.1-8.482,15.291-9.526,2.45-.493,1.413-4.24-1.033-3.748-6.761,1.359-16.1,4.121-17.931,11.873a11.983,11.983,0,0,0,1.571,8.934c1.361,2.087,4.728.141,3.357-1.962" transform="translate(-24.653 -3.983)" fill="#040504"/>
        <path id="Path_69" data-name="Path 69" d="M209.385,188.885a36.113,36.113,0,0,0-9.1-17.569c-15.552-17.124-33.978-32.64-52.318-46.815,16.889-9.735,28.652-28.62,28.191-48.356-.467-20.261-11.534-42.5-30.038-52.057-9.468-4.891-22.33-6.094-32.844-5.7a67.509,67.509,0,0,0-29.82,8.193c-16.248,8.675-29.581,23.611-30.3,42.8-.321,8.509.408,18.323,4.2,26.08A68.515,68.515,0,0,0,78.5,120.2c-2.639.9-5.251,1.879-7.851,2.9l-.03,0a13.416,13.416,0,0,0-1.4.555c-.088.035-.177.068-.265.1l0,.019c-.578.265-1.3.618-2.2,1.1a79.213,79.213,0,0,0-6.876,4.246c-.774.525-1.577,1.082-2.442,1.7l-.169.124c-16.14,11.326-32.072,23.643-46.038,37.23A36.113,36.113,0,0,0,1.065,185.149c-2.956,11.489.415,23.923,7.973,35.11,1.321,1.956,2.168,3.268,2.752,4.2,0,0,6.817,9.82,16.769,15.273a55.694,55.694,0,0,0,6.963,2.811c.252.064.49.128.719.193,2,.49,7.713,1.553,11.041-1.328.01-.01.022-.019.033-.028.077-.068.151-.141.224-.212a14.189,14.189,0,0,0,3.826-10.135,12.529,12.529,0,0,0-1.314-5.569,36.9,36.9,0,0,0-4.379-7.131L42.9,214.6c-3.468-5.032-.086-.568-3.668-5.521-.239-.331-.484-.668-.72-1.006-3.677-5.2-7.141-11.283-1.643-16.824,1.262-1.272,2.621-2.47,4.024-3.634,3.457-2.873,7.2-5.507,10.594-8.348,3.739-3.149,7.666-5.426,11.469-8.5.345,2.267-.545,5.14-.86,7.358-1,7.013-1.943,14.036-2.887,21.054-3.894,28.989-7.555,58.014-10.677,87.1C46.821,302.212,45.11,318.2,44.1,334.2c-.481,7.641-.532,16.337,3.162,23.318,2.1,3.97,6.73,8.649,11.54,8.541,5.449-.123,9.663-6.155,11.973-10.393,4.658-8.548,7.959-18.3,11.023-27.507,6.162-18.536,7.457-39.235,15.98-56.914,2.594-5.382,6.347-10.827,12.858-4.236,3.778,3.824,5.531,9.592,7.092,14.579,3.22,10.29,6.836,20.393,10.478,30.545,4.032,11.233,8.057,22.471,12.315,33.622,2.431,6.365,4.751,16.078,11.738,19.086,6.04,2.6,12.288-1.411,14.933-6.9,4.1-8.5,1.534-20.475.8-29.458a515.334,515.334,0,0,0-9.957-65.186s-.127-.727-.338-1.968c-.171-1-.4-2.35-.664-3.937-.935-5.591-2.326-14.157-3.313-21.268-.234-1.694-.447-3.3-.624-4.771-.15-1.243-.274-2.381-.366-3.381-1.541-19.348-2.536-38.739-4.023-58.092q5.41,4.952,10.716,10.014c3.208,3.044,6.784,5.905,10.057,8.986,1.328,1.249,2.611,2.528,3.792,3.876,5.145,5.87,1.31,11.732-2.681,16.689-.257.324-.522.644-.781.959-3.881,4.722-.23.476-4,5.284l-3,3.558A36.939,36.939,0,0,0,158,226.1a12.523,12.523,0,0,0-1.655,5.477,14.184,14.184,0,0,0,3.191,10.352c.069.076.138.154.211.226.009.01.021.02.031.03,3.143,3.081,8.91,2.374,10.937,2.009.233-.051.474-.1.73-.149a55.75,55.75,0,0,0,7.123-2.375c10.27-4.827,17.681-14.207,17.681-14.207.64-.9,1.566-2.152,3.006-4.023,8.236-10.7,12.369-22.9,10.129-34.55m-11.393,29.388c-.529.755-.969,1.383-1.343,1.919A42.194,42.194,0,0,1,184,233.311s-10.441,8.34-17.513,7.67c-.044.007-.086.02-.132.026h0c-.075-.016-.15-.038-.225-.057a5.856,5.856,0,0,1-3.991-2.265c-.109-.11-.217-.217-.322-.334-2.532-2.842-2.071-6.488-.234-10.263a40.188,40.188,0,0,1,4.694-6.807c.731-.807,1.408-1.559,2-2.239.391-.454.746-.878,1.049-1.265,5.05-6.441,3.925-3.548,7.959-10.659,3.826-6.744,3.776-12.2-1.84-17.966-.086-.086-.179-.178-.266-.268-8.636-8.832-18.2-17.245-27.453-25.419-1.208-1.067-3.64-.448-3.485,1.444,1.862,22.73,2.887,45.522,4.826,68.245l-.005.027.015.1c.086.559.549,3.547,1.158,7.446.8,5.115,1.848,11.788,2.624,16.587.492,3.04.875,5.331,1.015,5.991.013.061.035.105.051.16l-.023.008a519.725,519.725,0,0,1,9.322,57.489c.892,8.936,2.146,18.278,1.782,27.268-.129,3.209-.391,6.59-2.259,9.354-3.233,4.782-9.381,4.687-12.638.032-2.66-3.8-4-8.624-5.649-12.932-6.891-18.038-13.687-36.228-19.844-54.53-2.155-6.405-3.542-13.152-6.59-19.229-2.277-4.542-6.83-11.71-12.623-12-10.8-.547-15.108,19.963-17.1,27.363-4.972,18.492-8.418,36.94-15.594,54.813-2.461,6.132-9.414,27.714-19.377,17.774-7.174-7.156-5.535-20.106-4.784-29.3q1.77-21.672,4.062-43.293c2.958-27.549,6.4-55.047,10.063-82.511Q64.2,192.293,65.8,180.827c.522-3.7,1.634-8.041,1.21-11.914-1.075-6.282-6.689-2.479-7.053-2.225-8.581,6.721-16.523,13.145-24.745,20.575-.093.084-.192.17-.282.251-5.962,5.4-6.349,10.85-2.948,17.818,3.587,7.346,2.644,4.389,7.285,11.13.279.4.607.851.97,1.327.543.715,1.173,1.507,1.852,2.358a40.186,40.186,0,0,1,4.265,7.084c1.6,3.881,1.835,7.549-.869,10.229-.111.11-.226.211-.341.313a5.861,5.861,0,0,1-4.124,2.015c-.076.014-.152.032-.229.043h0c-.045-.009-.086-.024-.129-.033-7.1.231-17.005-8.738-17.005-8.738a42.2,42.2,0,0,1-11.815-13.876c-.341-.558-.74-1.212-1.222-2-5.43-8.863-8.8-19.573-5.893-29.823.179-.623.374-1.244.6-1.863,3.558-9.811,13.075-16.3,20.787-22.732,12.245-10.214,24.61-20.126,37.6-29.317a53.367,53.367,0,0,1,9-4.828c3.576-1.376,7.185-2.657,10.839-3.785a2.068,2.068,0,0,0,.488-3.732C65.447,106.857,53.422,86.325,57.778,63.612c4.408-22.978,28.356-38.138,50.235-40.72,11.94-1.41,27.342-.556,37.869,5.728,10.861,6.483,18.243,17.117,22.384,28.8,8.963,25.277-.632,52.721-25.034,65-1.518.764-1.113,2.675,0,3.526,15.012,11.5,28.928,24.082,42.661,37.059,7.3,6.9,16.4,13.962,19.342,23.974.186.632.342,1.264.483,1.9,2.271,10.41-1.758,20.891-7.727,29.4" transform="translate(0 -2.64)" fill="#040504"/>
        <path id="Path_70" data-name="Path 70" d="M123.738,118.314c-12.75,0-17.142-13.119-17.323-13.677a2.14,2.14,0,0,1,4.07-1.323c.144.438,3.641,10.72,13.253,10.72a12.757,12.757,0,0,0,12.345-8.547,2.14,2.14,0,0,1,4.093,1.252,17.048,17.048,0,0,1-16.438,11.575" transform="translate(-15.324 -14.679)" fill="#1a1818"/>
      </g>
    </g>
  </g>
</svg>
