<svg xmlns="http://www.w3.org/2000/svg" width="182.858" height="62.92" viewBox="0 0 182.858 62.92">
  <g id="Group_144" data-name="Group 144" transform="translate(-457 -198.649)">
    <g id="Group_128" data-name="Group 128" transform="translate(-860 -17)">
      <g id="Group_127" data-name="Group 127" transform="translate(556.65 -102)">
        <path id="Path_1" data-name="Path 1" d="M40.446,10.464h-6.1L32.493,4.934a.671.671,0,0,0-1.26,0l-1.854,5.531H23.234a.664.664,0,0,0-.663.663.47.47,0,0,0,.012.108.639.639,0,0,0,.278.47l5.013,3.533-1.921,5.6a.664.664,0,0,0,.229.746.65.65,0,0,0,.373.161.813.813,0,0,0,.415-.149l4.891-3.489,4.889,3.489a.778.778,0,0,0,.416.149.593.593,0,0,0,.368-.161.657.657,0,0,0,.229-.746L35.84,15.243l4.972-3.567.121-.108a.634.634,0,0,0-.489-1.107Z" transform="translate(774.779 313.155)" fill="#fbbc05"/>
        <path id="Path_2" data-name="Path 2" d="M62.091,10.464h-6.1L54.138,4.934a.671.671,0,0,0-1.26,0l-1.854,5.531H44.879a.664.664,0,0,0-.663.663.47.47,0,0,0,.012.108.639.639,0,0,0,.278.47l5.013,3.533-1.921,5.6a.664.664,0,0,0,.229.746.65.65,0,0,0,.373.161.813.813,0,0,0,.415-.149l4.891-3.489L58.4,21.595a.778.778,0,0,0,.416.149.593.593,0,0,0,.368-.161.657.657,0,0,0,.229-.746l-1.924-5.594,4.972-3.567.121-.108a.634.634,0,0,0-.489-1.107Z" transform="translate(775.526 313.155)" fill="#fbbc05"/>
        <path id="Path_3" data-name="Path 3" d="M83.736,10.464h-6.1L75.783,4.934a.671.671,0,0,0-1.26,0l-1.854,5.531H66.524a.664.664,0,0,0-.663.663.47.47,0,0,0,.012.108.639.639,0,0,0,.278.47l5.013,3.533-1.921,5.6a.664.664,0,0,0,.229.746.65.65,0,0,0,.373.161.813.813,0,0,0,.415-.149l4.891-3.489,4.889,3.489a.778.778,0,0,0,.416.149.593.593,0,0,0,.368-.161.657.657,0,0,0,.229-.746L79.13,15.243,84.1,11.676l.121-.108a.634.634,0,0,0-.489-1.107Z" transform="translate(776.273 313.155)" fill="#fbbc05"/>
        <path id="Path_4" data-name="Path 4" d="M105.382,10.464h-6.1L97.429,4.934a.671.671,0,0,0-1.26,0l-1.854,5.531H88.17a.664.664,0,0,0-.663.663.471.471,0,0,0,.012.108.639.639,0,0,0,.278.47l5.013,3.533-1.921,5.6a.664.664,0,0,0,.229.746.65.65,0,0,0,.373.161.813.813,0,0,0,.415-.149L96.8,18.105l4.889,3.489a.778.778,0,0,0,.416.149.593.593,0,0,0,.368-.161.657.657,0,0,0,.229-.746l-1.924-5.594,4.972-3.567.121-.108a.634.634,0,0,0-.489-1.107Z" transform="translate(777.021 313.155)" fill="#fbbc05"/>
        <path id="Path_5" data-name="Path 5" d="M127.027,10.464h-6.1l-1.853-5.531a.671.671,0,0,0-1.26,0l-1.854,5.531h-6.145a.664.664,0,0,0-.663.663.47.47,0,0,0,.012.108.639.639,0,0,0,.278.47l5.013,3.533-1.921,5.6a.664.664,0,0,0,.229.746.65.65,0,0,0,.373.161.813.813,0,0,0,.415-.149l4.891-3.489,4.889,3.489a.778.778,0,0,0,.416.149.593.593,0,0,0,.368-.161.657.657,0,0,0,.229-.746l-1.924-5.594,4.972-3.567.121-.108a.634.634,0,0,0-.489-1.107Z" transform="translate(777.768 313.155)" fill="#fbbc05"/>
      </g>
      <path id="Path_71" data-name="Path 71" d="M-53.48,0V-10.909h3.686a4.468,4.468,0,0,1,2.1.434,2.8,2.8,0,0,1,1.214,1.191,3.668,3.668,0,0,1,.394,1.721,3.6,3.6,0,0,1-.394,1.71A2.763,2.763,0,0,1-47.69-4.685a4.5,4.5,0,0,1-2.083.423h-2.983V-5.455h2.94a3.293,3.293,0,0,0,1.409-.256,1.628,1.628,0,0,0,.778-.727,2.436,2.436,0,0,0,.242-1.127,2.53,2.53,0,0,0-.245-1.145,1.684,1.684,0,0,0-.783-.759,3.2,3.2,0,0,0-1.422-.269h-2.322V0Zm5.135-4.9L-45.661,0h-1.534l-2.642-4.9Zm6.69,5.092a3.3,3.3,0,0,1-1.412-.3,2.4,2.4,0,0,1-1.007-.858,2.406,2.406,0,0,1-.373-1.361,2.114,2.114,0,0,1,.277-1.143,1.962,1.962,0,0,1,.74-.69A3.954,3.954,0,0,1-42.4-4.53q.562-.125,1.132-.2.746-.1,1.212-.146a1.853,1.853,0,0,0,.682-.173.449.449,0,0,0,.216-.426v-.043a1.674,1.674,0,0,0-.429-1.225,1.743,1.743,0,0,0-1.3-.437,2.261,2.261,0,0,0-1.412.394,2.33,2.33,0,0,0-.719.842l-1.193-.426a2.875,2.875,0,0,1,.855-1.164,3.222,3.222,0,0,1,1.172-.586,4.907,4.907,0,0,1,1.254-.168,5.162,5.162,0,0,1,.908.093,2.969,2.969,0,0,1,1,.381,2.231,2.231,0,0,1,.8.868,3.23,3.23,0,0,1,.32,1.555V0h-1.257V-1.108h-.064a2.213,2.213,0,0,1-.426.57,2.459,2.459,0,0,1-.794.517A3.058,3.058,0,0,1-41.655.192Zm.192-1.129A2.509,2.509,0,0,0-40.2-1.23a2.019,2.019,0,0,0,.778-.756,1.942,1.942,0,0,0,.264-.975V-4.112a.734.734,0,0,1-.349.173,5.291,5.291,0,0,1-.618.133q-.349.056-.676.1l-.53.067a4.881,4.881,0,0,0-.914.205,1.592,1.592,0,0,0-.682.421,1.075,1.075,0,0,0-.258.759,1.119,1.119,0,0,0,.487.988A2.149,2.149,0,0,0-41.463-.937Zm9.418-7.244v1.065h-4.24V-8.182Zm-3-1.96h1.257v7.8a1.591,1.591,0,0,0,.157.8.771.771,0,0,0,.4.352,1.557,1.557,0,0,0,.525.088,1.985,1.985,0,0,0,.341-.024l.213-.04L-31.9-.043a2.766,2.766,0,0,1-.357.1,2.761,2.761,0,0,1-.581.051,2.512,2.512,0,0,1-1.041-.229,2.051,2.051,0,0,1-.842-.7A1.992,1.992,0,0,1-35.05-2ZM-26.8.17a3.819,3.819,0,0,1-2.037-.525,3.46,3.46,0,0,1-1.316-1.47,4.972,4.972,0,0,1-.461-2.2,5.076,5.076,0,0,1,.461-2.219,3.611,3.611,0,0,1,1.289-1.5,3.462,3.462,0,0,1,1.936-.541,3.879,3.879,0,0,1,1.262.213,3.145,3.145,0,0,1,1.135.69,3.338,3.338,0,0,1,.815,1.26,5.359,5.359,0,0,1,.3,1.928v.533h-6.307V-4.751h5.028a2.7,2.7,0,0,0-.274-1.236,2.112,2.112,0,0,0-.778-.858,2.192,2.192,0,0,0-1.185-.314,2.255,2.255,0,0,0-1.3.37,2.465,2.465,0,0,0-.839.961,2.817,2.817,0,0,0-.293,1.268v.724a3.469,3.469,0,0,0,.322,1.569,2.269,2.269,0,0,0,.9.975A2.621,2.621,0,0,0-26.8-.959a2.7,2.7,0,0,0,.9-.141,1.872,1.872,0,0,0,.7-.426,1.911,1.911,0,0,0,.453-.711l1.214.341a2.672,2.672,0,0,1-.645,1.084,3.1,3.1,0,0,1-1.119.724A4.11,4.11,0,0,1-26.8.17Zm8.395,0a3.191,3.191,0,0,1-1.806-.519,3.467,3.467,0,0,1-1.225-1.47,5.3,5.3,0,0,1-.442-2.251,5.25,5.25,0,0,1,.442-2.237,3.438,3.438,0,0,1,1.23-1.465,3.248,3.248,0,0,1,1.822-.517,2.574,2.574,0,0,1,1.265.264,2.254,2.254,0,0,1,.714.6q.248.333.386.546h.107v-4.027h1.257V0h-1.214V-1.257h-.149q-.138.224-.394.562a2.292,2.292,0,0,1-.73.6A2.6,2.6,0,0,1-18.409.17Zm.17-1.129a2.051,2.051,0,0,0,1.278-.4,2.45,2.45,0,0,0,.794-1.1,4.527,4.527,0,0,0,.272-1.633A4.444,4.444,0,0,0-16.161-5.7a2.352,2.352,0,0,0-.788-1.076,2.107,2.107,0,0,0-1.289-.386,2.116,2.116,0,0,0-1.329.407,2.448,2.448,0,0,0-.794,1.1,4.365,4.365,0,0,0-.264,1.558,4.449,4.449,0,0,0,.269,1.585,2.548,2.548,0,0,0,.8,1.129A2.063,2.063,0,0,0-18.239-.959ZM-7.8,0V-10.909h6.584v1.172H-6.477v3.686h4.922v1.172H-6.477v3.707h5.348V0ZM1.939-8.182,3.9-4.837l1.96-3.345H7.308L4.666-4.091,7.308,0H5.859L3.9-3.175,1.939,0H.49l2.6-4.091L.49-8.182ZM12.081.17A3.54,3.54,0,0,1,10.1-.373a3.541,3.541,0,0,1-1.278-1.5,5.071,5.071,0,0,1-.447-2.179,5.015,5.015,0,0,1,.461-2.2,3.617,3.617,0,0,1,1.289-1.5,3.462,3.462,0,0,1,1.936-.541,3.669,3.669,0,0,1,1.555.32,2.978,2.978,0,0,1,1.135.895A2.791,2.791,0,0,1,15.3-5.732H14.041a1.969,1.969,0,0,0-.637-.993,1.93,1.93,0,0,0-1.324-.434,2.207,2.207,0,0,0-1.286.381,2.493,2.493,0,0,0-.858,1.071,3.955,3.955,0,0,0-.306,1.617,4.173,4.173,0,0,0,.3,1.651,2.5,2.5,0,0,0,.852,1.092,2.192,2.192,0,0,0,1.3.389,2.245,2.245,0,0,0,.89-.17,1.835,1.835,0,0,0,.676-.49,1.878,1.878,0,0,0,.394-.767H15.3a2.91,2.91,0,0,1-.525,1.3,2.942,2.942,0,0,1-1.1.916A3.546,3.546,0,0,1,12.081.17Zm8.48,0a3.819,3.819,0,0,1-2.037-.525,3.46,3.46,0,0,1-1.316-1.47,4.972,4.972,0,0,1-.461-2.2,5.076,5.076,0,0,1,.461-2.219,3.611,3.611,0,0,1,1.289-1.5,3.462,3.462,0,0,1,1.936-.541,3.878,3.878,0,0,1,1.262.213,3.145,3.145,0,0,1,1.135.69,3.338,3.338,0,0,1,.815,1.26,5.359,5.359,0,0,1,.3,1.928v.533H17.642V-4.751H22.67A2.7,2.7,0,0,0,22.4-5.987a2.112,2.112,0,0,0-.778-.858,2.192,2.192,0,0,0-1.185-.314,2.255,2.255,0,0,0-1.3.37,2.465,2.465,0,0,0-.839.961A2.817,2.817,0,0,0,18-4.56v.724a3.469,3.469,0,0,0,.322,1.569,2.269,2.269,0,0,0,.9.975,2.621,2.621,0,0,0,1.337.333,2.7,2.7,0,0,0,.9-.141,1.872,1.872,0,0,0,.7-.426,1.911,1.911,0,0,0,.453-.711l1.214.341a2.672,2.672,0,0,1-.645,1.084,3.1,3.1,0,0,1-1.119.724A4.11,4.11,0,0,1,20.561.17Zm6.562-11.08V0H25.866V-10.909Zm3.558,0V0H29.425V-10.909ZM36.413.17a3.819,3.819,0,0,1-2.037-.525,3.46,3.46,0,0,1-1.316-1.47,4.972,4.972,0,0,1-.461-2.2,5.076,5.076,0,0,1,.461-2.219,3.61,3.61,0,0,1,1.289-1.5,3.462,3.462,0,0,1,1.936-.541,3.878,3.878,0,0,1,1.262.213,3.145,3.145,0,0,1,1.135.69,3.338,3.338,0,0,1,.815,1.26A5.359,5.359,0,0,1,39.8-4.2v.533H33.494V-4.751h5.028a2.7,2.7,0,0,0-.274-1.236,2.112,2.112,0,0,0-.778-.858,2.192,2.192,0,0,0-1.185-.314,2.255,2.255,0,0,0-1.3.37,2.465,2.465,0,0,0-.839.961,2.817,2.817,0,0,0-.293,1.268v.724a3.469,3.469,0,0,0,.322,1.569,2.269,2.269,0,0,0,.9.975,2.621,2.621,0,0,0,1.337.333,2.7,2.7,0,0,0,.9-.141,1.872,1.872,0,0,0,.7-.426,1.911,1.911,0,0,0,.453-.711l1.214.341a2.672,2.672,0,0,1-.645,1.084,3.1,3.1,0,0,1-1.119.724A4.11,4.11,0,0,1,36.413.17Zm6.562-5.092V0H41.719V-8.182h1.214V-6.9h.107a2.354,2.354,0,0,1,.874-1,2.73,2.73,0,0,1,1.513-.381,3,3,0,0,1,1.454.338,2.315,2.315,0,0,1,.969,1.023A3.816,3.816,0,0,1,48.2-5.2V0H46.939V-5.114a2.13,2.13,0,0,0-.5-1.5,1.781,1.781,0,0,0-1.374-.541,2.178,2.178,0,0,0-1.073.261,1.863,1.863,0,0,0-.743.762A2.515,2.515,0,0,0,42.976-4.922Zm11.08-3.26v1.065h-4.24V-8.182Zm-3-1.96h1.257v7.8a1.591,1.591,0,0,0,.157.8.771.771,0,0,0,.4.352,1.557,1.557,0,0,0,.525.088,1.985,1.985,0,0,0,.341-.024l.213-.04L54.2-.043a2.766,2.766,0,0,1-.357.1,2.761,2.761,0,0,1-.581.051,2.512,2.512,0,0,1-1.041-.229,2.051,2.051,0,0,1-.842-.7A1.992,1.992,0,0,1,51.051-2ZM-44.83,20V9.091h1.257v4.027h.107q.138-.213.386-.546a2.254,2.254,0,0,1,.714-.6,2.574,2.574,0,0,1,1.265-.264,3.248,3.248,0,0,1,1.822.517,3.438,3.438,0,0,1,1.23,1.465,5.25,5.25,0,0,1,.442,2.237,5.3,5.3,0,0,1-.442,2.251,3.467,3.467,0,0,1-1.225,1.47,3.191,3.191,0,0,1-1.806.519,2.6,2.6,0,0,1-1.262-.264,2.293,2.293,0,0,1-.73-.6q-.256-.338-.394-.562h-.149V20Zm1.236-4.091a4.527,4.527,0,0,0,.272,1.633,2.45,2.45,0,0,0,.794,1.1,2.051,2.051,0,0,0,1.278.4,2.063,2.063,0,0,0,1.318-.418,2.548,2.548,0,0,0,.8-1.129,4.449,4.449,0,0,0,.269-1.585,4.365,4.365,0,0,0-.264-1.558,2.448,2.448,0,0,0-.794-1.1,2.116,2.116,0,0,0-1.329-.407,2.107,2.107,0,0,0-1.289.386,2.352,2.352,0,0,0-.788,1.076A4.444,4.444,0,0,0-43.594,15.909Zm8.416,7.159a2.894,2.894,0,0,1-.57-.051,1.566,1.566,0,0,1-.346-.1l.32-1.108a2.42,2.42,0,0,0,.81.085.985.985,0,0,0,.626-.312,2.563,2.563,0,0,0,.5-.9l.234-.639-3.026-8.224h1.364L-33,18.338h.085l2.259-6.52H-29.3l-3.473,9.375a3.585,3.585,0,0,1-.581,1.052,2.193,2.193,0,0,1-.8.621A2.5,2.5,0,0,1-35.178,23.068ZM-15.788,12.5a3.956,3.956,0,0,0-.461-.967,3.066,3.066,0,0,0-.676-.732,2.873,2.873,0,0,0-.887-.463,3.524,3.524,0,0,0-1.087-.16,3.237,3.237,0,0,0-1.763.5,3.461,3.461,0,0,0-1.262,1.475,5.491,5.491,0,0,0-.469,2.392,5.438,5.438,0,0,0,.474,2.392,3.455,3.455,0,0,0,1.284,1.475,3.393,3.393,0,0,0,1.822.5,3.321,3.321,0,0,0,1.654-.4,2.834,2.834,0,0,0,1.119-1.14,3.58,3.58,0,0,0,.4-1.739l.4.085h-3.281V14.545h4.155v1.172a4.622,4.622,0,0,1-.573,2.344A3.979,3.979,0,0,1-16.51,19.6a4.745,4.745,0,0,1-2.3.546,4.71,4.71,0,0,1-2.544-.682,4.571,4.571,0,0,1-1.7-1.939,6.77,6.77,0,0,1-.61-2.983,7.278,7.278,0,0,1,.349-2.33,5.127,5.127,0,0,1,.988-1.766,4.332,4.332,0,0,1,1.513-1.119A4.676,4.676,0,0,1-18.9,8.942a4.905,4.905,0,0,1,1.611.258,4.433,4.433,0,0,1,1.337.73,4.23,4.23,0,0,1,.983,1.124,4.311,4.311,0,0,1,.543,1.446Zm5.668,7.5L-13.1,9.091h1.342l2.28,8.885h.107l2.322-8.885h1.491l2.322,8.885h.107l2.28-8.885H.49L-2.493,20H-3.857l-2.408-8.693h-.085L-8.757,20ZM13.509,9.091H14.83v7.223a3.807,3.807,0,0,1-.525,1.995,3.687,3.687,0,0,1-1.478,1.38,4.726,4.726,0,0,1-2.237.5,4.726,4.726,0,0,1-2.237-.5,3.687,3.687,0,0,1-1.478-1.38,3.807,3.807,0,0,1-.525-1.995V9.091H7.67v7.116a2.829,2.829,0,0,0,.352,1.42,2.493,2.493,0,0,0,1,.975,3.233,3.233,0,0,0,1.563.354,3.249,3.249,0,0,0,1.566-.354,2.471,2.471,0,0,0,1-.975,2.846,2.846,0,0,0,.349-1.42Zm9.588,4.56-1.129.32a2.181,2.181,0,0,0-.312-.551,1.564,1.564,0,0,0-.557-.445,2.012,2.012,0,0,0-.9-.176,2.149,2.149,0,0,0-1.249.344,1.025,1.025,0,0,0-.5.871.9.9,0,0,0,.341.74,2.847,2.847,0,0,0,1.065.453l1.214.3a3.367,3.367,0,0,1,1.635.812,1.915,1.915,0,0,1,.538,1.4,2.086,2.086,0,0,1-.4,1.257,2.7,2.7,0,0,1-1.121.874,4.086,4.086,0,0,1-1.673.32,3.678,3.678,0,0,1-2.072-.543,2.409,2.409,0,0,1-1.039-1.587l1.193-.3a1.654,1.654,0,0,0,.647.991,2.151,2.151,0,0,0,1.249.33,2.339,2.339,0,0,0,1.4-.376,1.094,1.094,0,0,0,.519-.9.96.96,0,0,0-.3-.716,1.92,1.92,0,0,0-.916-.434l-1.364-.32a3.222,3.222,0,0,1-1.649-.828,1.984,1.984,0,0,1-.525-1.409,2.014,2.014,0,0,1,.392-1.225,2.623,2.623,0,0,1,1.071-.836,3.741,3.741,0,0,1,1.542-.3,3.07,3.07,0,0,1,1.91.533A2.878,2.878,0,0,1,23.1,13.651Zm5.476,6.52a3.819,3.819,0,0,1-2.037-.525,3.46,3.46,0,0,1-1.316-1.47,4.972,4.972,0,0,1-.461-2.2,5.076,5.076,0,0,1,.461-2.219,3.611,3.611,0,0,1,1.289-1.5,3.462,3.462,0,0,1,1.936-.541,3.878,3.878,0,0,1,1.262.213,3.145,3.145,0,0,1,1.135.69,3.338,3.338,0,0,1,.815,1.26,5.359,5.359,0,0,1,.3,1.928v.533H25.653V15.249h5.028a2.7,2.7,0,0,0-.274-1.236,2.112,2.112,0,0,0-.778-.858,2.192,2.192,0,0,0-1.185-.314,2.255,2.255,0,0,0-1.3.37,2.465,2.465,0,0,0-.839.961,2.817,2.817,0,0,0-.293,1.268v.724a3.469,3.469,0,0,0,.322,1.569,2.269,2.269,0,0,0,.9.975,2.621,2.621,0,0,0,1.337.333,2.7,2.7,0,0,0,.9-.141,1.872,1.872,0,0,0,.7-.426,1.911,1.911,0,0,0,.453-.711l1.214.341a2.672,2.672,0,0,1-.645,1.084,3.1,3.1,0,0,1-1.119.724A4.11,4.11,0,0,1,28.572,20.17ZM33.878,20V11.818h1.214v1.236h.085a1.965,1.965,0,0,1,.81-.985,2.383,2.383,0,0,1,1.321-.378q.138,0,.346.005t.314.016V12.99q-.064-.016-.29-.051A3.153,3.153,0,0,0,37.2,12.9a2.23,2.23,0,0,0-1.063.248,1.89,1.89,0,0,0-.735.682,1.837,1.837,0,0,0-.269.988V20Zm11.378-6.349-1.129.32a2.181,2.181,0,0,0-.312-.551,1.564,1.564,0,0,0-.557-.445,2.012,2.012,0,0,0-.9-.176,2.149,2.149,0,0,0-1.249.344,1.025,1.025,0,0,0-.5.871.9.9,0,0,0,.341.74,2.847,2.847,0,0,0,1.065.453l1.214.3a3.367,3.367,0,0,1,1.635.812,1.915,1.915,0,0,1,.538,1.4,2.086,2.086,0,0,1-.4,1.257,2.7,2.7,0,0,1-1.121.874,4.086,4.086,0,0,1-1.673.32,3.678,3.678,0,0,1-2.072-.543A2.409,2.409,0,0,1,39.1,18.04l1.193-.3a1.654,1.654,0,0,0,.647.991,2.151,2.151,0,0,0,1.249.33,2.339,2.339,0,0,0,1.4-.376,1.094,1.094,0,0,0,.519-.9.96.96,0,0,0-.3-.716,1.92,1.92,0,0,0-.916-.434l-1.364-.32a3.222,3.222,0,0,1-1.649-.828,1.984,1.984,0,0,1-.525-1.409,2.014,2.014,0,0,1,.392-1.225,2.623,2.623,0,0,1,1.071-.836,3.741,3.741,0,0,1,1.542-.3,3.07,3.07,0,0,1,1.91.533A2.878,2.878,0,0,1,45.256,13.651Z" transform="translate(1408 255.5)" fill="#fff"/>
    </g>
    <g id="Group_143" data-name="Group 143" transform="translate(0.498)">
      <g id="Group_141" data-name="Group 141" transform="translate(613.502 199.695)">
        <path id="Path_6" data-name="Path 6" d="M6.791,6.561,8.342,5c.169.167,16.809,17.285-2.249,49.683L4.2,53.566C22.35,22.714,7.43,7.207,6.791,6.561" transform="translate(1.031 6.38)" fill="#bbafff"/>
        <path id="Path_7" data-name="Path 7" d="M5.669,12.6A8.245,8.245,0,0,0,7.986,7.146a7.891,7.891,0,0,0-2.393-5.4,9.743,9.743,0,0,0-1.942,5.69A6.978,6.978,0,0,0,5.669,12.6" transform="translate(9.538 2.204)" fill="#bbafff"/>
        <path id="Path_8" data-name="Path 8" d="M15.32,12.555c.231,0,.464-.011.695-.03A6.929,6.929,0,0,0,13.32,7.713,9.856,9.856,0,0,0,7.66,5.6a7.94,7.94,0,0,0,2.722,5.315,8.258,8.258,0,0,0,4.938,1.641" transform="translate(-7.66 7.149)" fill="#bbafff"/>
        <path id="Path_9" data-name="Path 9" d="M13.445,18.307A6.918,6.918,0,0,0,11.4,13.184,9.74,9.74,0,0,0,6.066,10.35a7.941,7.941,0,0,0,2,5.631,8.168,8.168,0,0,0,5.377,2.326" transform="translate(-1.434 13.255)" fill="#bbafff"/>
        <path id="Path_10" data-name="Path 10" d="M13.432,23.216a6.936,6.936,0,0,0-1.558-5.3A9.773,9.773,0,0,0,6.831,14.6,7.928,7.928,0,0,0,8.3,20.385a8.192,8.192,0,0,0,5.132,2.831" transform="translate(-3.065 18.716)" fill="#bbafff"/>
        <path id="Path_11" data-name="Path 11" d="M12.628,28.917A6.963,6.963,0,0,0,12.66,23.4a9.8,9.8,0,0,0-3.873-4.632,7.94,7.94,0,0,0-.261,5.976,8.189,8.189,0,0,0,4.1,4.17" transform="translate(-5.784 24.077)" fill="#bbafff"/>
        <path id="Path_12" data-name="Path 12" d="M14.52,8.983a8.233,8.233,0,0,0-1.1-5.818A7.861,7.861,0,0,0,8.437,0,9.73,9.73,0,0,0,9.981,5.813,6.949,6.949,0,0,0,14.52,8.983" transform="translate(-8.041 1)" fill="#bbafff"/>
        <path id="Path_13" data-name="Path 13" d="M2.093,16.315a8.227,8.227,0,0,0,3.823-4.527,7.9,7.9,0,0,0-.7-5.864,9.738,9.738,0,0,0-3.533,4.87,6.975,6.975,0,0,0,.407,5.521" transform="translate(16.695 7.568)" fill="#bbafff"/>
        <path id="Path_14" data-name="Path 14" d="M.6,20.327A8.263,8.263,0,0,0,5.337,16.76a7.888,7.888,0,0,0,.619-5.868,9.742,9.742,0,0,0-4.527,3.962A6.97,6.97,0,0,0,.6,20.327" transform="translate(18.762 13.952)" fill="#bbafff"/>
        <path id="Path_15" data-name="Path 15" d="M.247,23.314a8.266,8.266,0,0,0,5.345-1.965,7.9,7.9,0,0,0,2.367-5.4,9.733,9.733,0,0,0-5.512,2.393A6.966,6.966,0,0,0,0,23.31c.082,0,.165,0,.247,0" transform="translate(17.899 20.457)" fill="#bbafff"/>
        <path id="Path_16" data-name="Path 16" d="M2.779,27.471A8.222,8.222,0,0,0,7.335,26.1a7.89,7.89,0,0,0,3-5.082c-.071,0-.139,0-.208,0a9.728,9.728,0,0,0-5.551,1.73,6.941,6.941,0,0,0-3.026,4.637,8.118,8.118,0,0,0,1.225.091" transform="translate(11.969 26.958)" fill="#bbafff"/>
      </g>
      <g id="Group_142" data-name="Group 142" transform="translate(456.502 200.695)">
        <path id="Path_6-2" data-name="Path 6" d="M12.64,6.561,11.088,5c-.169.167-16.809,17.285,2.249,49.683l1.894-1.117C-2.919,22.714,12,7.207,12.64,6.561" transform="translate(5.397 5.38)" fill="#bbafff"/>
        <path id="Path_7-2" data-name="Path 7" d="M5.964,12.6A8.245,8.245,0,0,1,3.647,7.146a7.891,7.891,0,0,1,2.393-5.4,9.743,9.743,0,0,1,1.942,5.69A6.978,6.978,0,0,1,5.964,12.6" transform="translate(4.687 1.204)" fill="#bbafff"/>
        <path id="Path_8-2" data-name="Path 8" d="M8.355,12.555c-.231,0-.464-.011-.695-.03a6.929,6.929,0,0,1,2.694-4.812A9.856,9.856,0,0,1,16.014,5.6a7.94,7.94,0,0,1-2.722,5.315,8.258,8.258,0,0,1-4.938,1.641" transform="translate(9.844 6.149)" fill="#bbafff"/>
        <path id="Path_9-2" data-name="Path 9" d="M6.062,18.307a6.918,6.918,0,0,1,2.047-5.123A9.74,9.74,0,0,1,13.44,10.35a7.941,7.941,0,0,1-2,5.631,8.168,8.168,0,0,1-5.377,2.326" transform="translate(7.786 12.255)" fill="#bbafff"/>
        <path id="Path_10-2" data-name="Path 10" d="M6.809,23.216a6.936,6.936,0,0,1,1.558-5.3A9.773,9.773,0,0,1,13.411,14.6a7.928,7.928,0,0,1-1.469,5.786,8.192,8.192,0,0,1-5.132,2.831" transform="translate(8.682 17.716)" fill="#bbafff"/>
        <path id="Path_11-2" data-name="Path 11" d="M8.65,28.917A6.963,6.963,0,0,1,8.618,23.4a9.8,9.8,0,0,1,3.873-4.632,7.94,7.94,0,0,1,.261,5.976,8.19,8.19,0,0,1-4.1,4.17" transform="translate(10.364 23.077)" fill="#bbafff"/>
        <path id="Path_12-2" data-name="Path 12" d="M8.557,8.983a8.233,8.233,0,0,1,1.1-5.818A7.861,7.861,0,0,1,14.64,0a9.73,9.73,0,0,1-1.545,5.813A6.95,6.95,0,0,1,8.557,8.983" transform="translate(10.824 0)" fill="#bbafff"/>
        <path id="Path_13-2" data-name="Path 13" d="M5.4,16.315a8.227,8.227,0,0,1-3.823-4.527,7.9,7.9,0,0,1,.7-5.864,9.738,9.738,0,0,1,3.533,4.87A6.975,6.975,0,0,1,5.4,16.315" transform="translate(1.671 6.568)" fill="#bbafff"/>
        <path id="Path_14-2" data-name="Path 14" d="M6.027,20.327A8.263,8.263,0,0,1,1.288,16.76a7.888,7.888,0,0,1-.619-5.868A9.742,9.742,0,0,1,5.2,14.854a6.97,6.97,0,0,1,.832,5.473" transform="translate(0.471 12.952)" fill="#bbafff"/>
        <path id="Path_15-2" data-name="Path 15" d="M7.712,23.314a8.266,8.266,0,0,1-5.345-1.965A7.9,7.9,0,0,1,0,15.954a9.733,9.733,0,0,1,5.512,2.393A6.966,6.966,0,0,1,7.959,23.31c-.082,0-.165,0-.247,0" transform="translate(0 19.457)" fill="#bbafff"/>
        <path id="Path_16-2" data-name="Path 16" d="M9.113,27.471A8.222,8.222,0,0,1,4.557,26.1a7.89,7.89,0,0,1-3-5.082c.071,0,.139,0,.208,0a9.728,9.728,0,0,1,5.551,1.73,6.941,6.941,0,0,1,3.026,4.637,8.118,8.118,0,0,1-1.225.091" transform="translate(1.997 25.958)" fill="#bbafff"/>
      </g>
    </g>
  </g>
</svg>
